HIERARCHY
ROOT pelvis
{
  OFFSET 0 100 0
  CHANNELS 6 Xposition Yposition Zposition Zrotation Xrotation Yrotation
  JOINT pelvis_right_femur
  {
    OFFSET -10.78128 -3.44521 -0.5502486
    CHANNELS 3 Zrotation Xrotation Yrotation
    JOINT right_femur_tibia
    {
      OFFSET -0.8047443 -44.0398 -0.1307829
      CHANNELS 3 Zrotation Xrotation Yrotation
      JOINT right_tibia_foot
      {
        OFFSET 3.006224 -47.83518 -5
        CHANNELS 3 Zrotation Xrotation Yrotation
        End Site
        {
          OFFSET 0 -5 15
        }
      }
    }
  }
  JOINT pelvis_left_femur
  {
    OFFSET 10.78128 -3.44521 -0.5502486
    CHANNELS 3 Zrotation Xrotation Yrotation
    JOINT left_femur_tibia
    {
      OFFSET 0.8047443 -44.0398 -0.1307829
      CHANNELS 3 Zrotation Xrotation Yrotation
      JOINT left_tibia_foot
      {
        OFFSET -4.370144 -48.10324 -4.275266
        CHANNELS 3 Zrotation Xrotation Yrotation
        End Site
        {
          OFFSET 0 -5 15
        }
      }
    }
  }
  JOINT pelvis_spine1
  {
    OFFSET 0 6.468898 -3.129235
    CHANNELS 3 Zrotation Xrotation Yrotation
    JOINT spine1
    {
      OFFSET 0 23.15396 4.99043
      CHANNELS 3 Zrotation Xrotation Yrotation
      JOINT spine2
      {
        OFFSET 0 20.79997 -5.064912
        CHANNELS 3 Zrotation Xrotation Yrotation
        JOINT neck
        {
          OFFSET 0 14.38658 9.616178
          CHANNELS 3 Zrotation Xrotation Yrotation
          End Site
          {
            OFFSET 0 20 0
          }
        }
      }
      JOINT right_manubrium
      {
        OFFSET -5.722621 16.35077 3.967754
        CHANNELS 3 Zrotation Xrotation Yrotation
        JOINT right_clavicle
        {
          OFFSET -13.16364 1.694482 -4.693211
          CHANNELS 3 Zrotation Xrotation Yrotation
          JOINT right_humerus
          {
            OFFSET -28.5034 -0.3100689 -2.792744
            CHANNELS 3 Zrotation Xrotation Yrotation
            JOINT right_radius
            {
              OFFSET -25.15693 0.02248979 -1.271978
              CHANNELS 3 Zrotation Xrotation Yrotation
              End Site
              {
                OFFSET -15 0 0
              }
            }
          }
        }
      }
      JOINT left_manubrium
      {
        OFFSET 5.722621 16.35077 3.967754
        CHANNELS 3 Zrotation Xrotation Yrotation
        JOINT left_clavicle
        {
          OFFSET 13.16364 1.694482 -4.693211
          CHANNELS 3 Zrotation Xrotation Yrotation
          JOINT left_humerus
          {
            OFFSET 29.39168 -1.063119 -2.237045
            CHANNELS 3 Zrotation Xrotation Yrotation
            JOINT left_radius
            {
              OFFSET 24.59957 -0.9528479 0.9047498
              CHANNELS 3 Zrotation Xrotation Yrotation
              End Site
              {
                OFFSET 15 -0 -0
              }
            }
          }
        }
      }
    }
  }
}
MOTION
Frames: 7
Frame Time: 0.0416666666667
0 103.5113 0 0.8248647 -0.9684253 0.103132 3.453941 -16.71526 8.763244 -0 39.04445 -0 -5.883477 -15.33088 -2.952871 -7.321594 6.57729 -23.16976 -0 5.450137 -0 7.284149 -18.28971 26.29319 -2.007678 -1.967299 4.17889 2.155899 10.04976 -6.789053 0.7780945 22.26019 7.002657 4.625981 -23.80822 7.585351 6.026486 -18.445 11.83817 85.09172 37.44911 -17.28211 -0 0 12.76031 -10.45891 8.511384 6.596611 6.352033 -21.54349 -2.810686 -92.93281 22.71454 21.47972 0 0 -15.19735 12.19626 17.02628 -0.2877624
0.3594524 103.7203 0.9122524 0.7770255 -0.8335733 0.1888438 3.709229 -18.31032 8.857075 -0 38.76667 -0 -6.033448 -15.14643 -3.13517 -7.299629 8.025167 -23.39308 -0 6.260857 -0 7.337163 -18.59532 26.16495 -1.945093 -2.168057 3.97498 2.361741 10.17202 -7.114676 0.7055124 22.18233 7.06458 4.71985 -24.27655 7.622351 6.090485 -18.41493 11.89104 85.87775 37.71546 -18.47263 -0 0 12.1332 -9.645616 8.294908 6.143528 6.482984 -22.10298 -2.904702 -92.7944 22.71063 21.23335 0 0 -16.11445 13.03144 17.4064 -1.106578
0.6762503 103.8802 2.278754 0.748357 -1.036052 0.3840593 3.584173 -20.24898 8.022034 -0 38.0255 -0 -5.84082 -13.10913 -3.426913 -7.087349 10.09433 -22.41851 -0 6.530203 -0 6.563778 -19.1367 24.97452 -1.946175 -2.061454 3.938822 2.372952 10.02804 -7.18349 0.7585242 22.16749 7.060105 4.583145 -24.16734 7.714869 6.029534 -18.20789 11.81313 86.07777 37.56046 -18.79583 -0 0 12.0039 -9.794142 8.537595 6.140468 6.394886 -21.97355 -2.874556 -92.49616 23.33479 20.80554 0 0 -16.75617 12.03055 17.16044 0.1139255
0.9458612 103.9154 3.895136 0.6553053 -0.9232228 0.5995621 3.690773 -22.00046 7.381191 -0 35.58263 -0 -5.996936 -12.29043 -3.511556 -6.827651 11.46864 -21.78306 -0 6.18098 -0 6.244002 -19.59485 24.18087 -1.91439 -2.099324 3.827738 2.477763 10.00532 -7.377171 0.7535376 22.11774 7.085895 4.548277 -24.33708 7.785634 6.025237 -18.09038 11.79635 86.56194 37.59255 -19.5394 -0 0 11.65368 -9.484481 8.573875 5.924452 6.400964 -22.16159 -2.900329 -92.27889 23.69945 20.48044 0 0 -17.55219 11.83765 17.20334 0.4486383
1.153993 103.7192 5.910132 0.5084911 -0.7644585 0.8423099 3.793606 -24.2599 6.343708 -0 31.5169 -0 -6.245176 -11.17244 -3.570418 -6.426546 13.12414 -20.71308 -0 5.47957 -0 5.726337 -20.18228 22.96501 -1.894579 -2.088405 3.727844 2.554941 9.941752 -7.53889 0.7683835 22.08272 7.103363 4.480612 -24.40992 7.865053 5.999621 -17.92092 11.75613 86.98745 37.55204 -20.18904 -0 0 11.33157 -9.323766 8.675988 5.767642 6.384193 -22.26227 -2.913508 -91.99291 24.14246 20.05122 0 0 -18.34134 11.40275 17.14198 1.045266
1.301328 103.2869 8.342313 0.3554581 -0.6285162 1.108113 3.866413 -26.43535 5.273386 -0 27.29189 -0 -6.499032 -10.0467 -3.623191 -6.037169 14.70304 -19.57768 -0 4.972984 -0 5.138977 -20.70185 21.6886 -1.873356 -2.095927 3.607607 2.643723 9.897301 -7.718063 0.7753787 22.04952 7.125885 4.432166 -24.50874 7.938207 5.980147 -17.74625 11.72245 87.4667 37.52691 -20.90801 -0 0 10.94521 -9.110005 8.740606 5.57914 6.391473 -22.42007 -2.940337 -91.68609 24.51256 19.5785 0 0 -19.15327 11.13292 17.12078 1.447437
1.391613 102.6238 11.30278 0.2074928 -0.6178047 1.409159 3.829894 -28.51516 4.033573 -0 23.06774 -0 -6.670839 -8.541537 -3.717857 -5.660966 16.31825 -18.16452 -0 4.905738 -0 4.285006 -21.12399 20.15185 -1.86102 -2.083826 3.4821 2.718742 9.842287 -7.881224 0.7893508 22.03078 7.146185 4.379838 -24.55509 8.008596 5.952339 -17.53551 11.67903 87.92718 37.4685 -21.58657 -0 0 10.53724 -8.967034 8.816263 5.413914 6.404348 -22.55861 -2.968809 -91.32385 24.85426 19.00989 0 0 -19.94194 10.85235 17.06203 1.840831
